<svg width="20" height="69" viewBox="0 0 20 69" fill="none" xmlns="http://www.w3.org/2000/svg">
<path d="M16.2615 61.7574L12.3735 64.0134V65.6934H16.2615V67.9014H5.06147V63.4214C5.06147 62.3867 5.42414 61.5067 6.14947 60.7814C6.87481 60.0561 7.74947 59.6934 8.77347 59.6934C9.46681 59.6934 10.1121 59.8907 10.7095 60.2854C11.2961 60.6801 11.7388 61.2027 12.0375 61.8534L16.2615 59.3734V61.7574ZM7.12547 65.6934H10.4375V63.4214C10.4375 63.0054 10.2775 62.6481 9.95747 62.3494C9.62681 62.0507 9.23214 61.9014 8.77347 61.9014C8.31481 61.9014 7.92547 62.0507 7.60547 62.3494C7.28547 62.6481 7.12547 63.0054 7.12547 63.4214V65.6934ZM16.4855 53.9754C16.4855 55.2234 16.1335 56.2474 15.4295 57.0474C14.7255 57.8474 13.7815 58.2474 12.5975 58.2474H5.06147V56.0554H12.4215C13.0081 56.0554 13.4721 55.8901 13.8135 55.5594C14.1548 55.2181 14.3255 54.6901 14.3255 53.9754C14.3255 53.2607 14.1548 52.7381 13.8135 52.4074C13.4721 52.0661 13.0081 51.8954 12.4215 51.8954H5.06147V49.6874H12.5975C13.7815 49.6874 14.7255 50.0874 15.4295 50.8874C16.1335 51.6874 16.4855 52.7167 16.4855 53.9754Z" fill="#828282"/>
<path d="M19.4615 43.6983H4.74147V41.6343H19.4615V43.6983ZM14.1495 33.3497V28.6297H16.2615V35.5577H5.06147L5.06147 28.7097H7.17347L7.17347 33.3497H9.55747L9.55747 29.1097H11.6375L11.6375 33.3497H14.1495ZM5.06147 20.5933L5.06147 18.3853H16.2615V20.0653L9.41347 24.8653H16.2615L16.2615 27.0733H5.06147V25.3933L11.8935 20.5933H5.06147ZM10.2455 5.31566H11.1095C12.7095 5.31566 14.0055 5.82766 14.9975 6.85166C15.9895 7.87566 16.4855 9.19832 16.4855 10.8197C16.4855 12.5477 15.9255 13.9823 14.8055 15.1237C13.6748 16.2543 12.2988 16.8197 10.6775 16.8197C9.04547 16.8197 7.66414 16.2597 6.53347 15.1397C5.40281 14.009 4.83747 12.6117 4.83747 10.9477C4.83747 9.90232 5.07747 8.94766 5.55747 8.08366C6.02681 7.21966 6.65614 6.54766 7.44547 6.06766L8.53347 7.95566C8.07481 8.22232 7.70147 8.62766 7.41347 9.17166C7.12547 9.70499 6.98147 10.3023 6.98147 10.9637C6.98147 12.0303 7.33347 12.9103 8.03747 13.6037C8.73081 14.2863 9.61081 14.6277 10.6775 14.6277C11.7335 14.6277 12.6081 14.281 13.3015 13.5877C13.9841 12.8837 14.3255 11.9557 14.3255 10.8037C14.3255 9.95032 14.1388 9.24632 13.7655 8.69166C13.3815 8.12632 12.8588 7.74232 12.1975 7.53966V10.9317H10.2455V5.31566Z" fill="black"/>
</svg>
