<svg width="18" height="40" viewBox="0 0 18 40" fill="none" xmlns="http://www.w3.org/2000/svg">
<path d="M17.3113 26.96C17.3113 29.0667 16.6979 30.76 15.4713 32.04C14.2446 33.32 12.6446 34.12 10.6713 34.44V39.28H9.87125V34.52C9.63125 34.5467 9.28458 34.56 8.83125 34.56C8.40458 34.56 7.89792 34.5333 7.31125 34.48V39.28H6.51125V34.36C5.87125 34.2267 5.31125 34.0667 4.83125 33.88C4.35125 33.6667 3.85792 33.4 3.35125 33.08C2.76458 32.7067 2.31125 32.52 1.99125 32.52C1.75125 32.52 1.56458 32.6667 1.43125 32.96C1.29792 33.2267 1.19125 33.6667 1.11125 34.28H0.19125C0.297917 32.8133 0.35125 29.6133 0.35125 24.68H1.27125C1.43125 26.9467 1.92458 28.8667 2.75125 30.44C3.57792 32.0133 4.83125 33.0267 6.51125 33.48V20.52C4.51125 19.2667 2.99125 18.0267 1.95125 16.8C0.91125 15.5733 0.39125 14.0267 0.39125 12.16C0.39125 10.1867 0.964584 8.62667 2.11125 7.48C3.25792 6.30667 4.72458 5.58667 6.51125 5.32V0.399999H7.31125V5.24H7.91125C8.47125 5.24 9.12458 5.29333 9.87125 5.4V0.399999H10.6713V5.6C11.3113 5.84 12.0179 6.21333 12.7913 6.72C13.3779 7.09333 13.8313 7.28 14.1513 7.28C14.3913 7.28 14.5779 7.14667 14.7113 6.88C14.8446 6.58667 14.9513 6.13333 15.0313 5.52H15.9513C15.8179 7.06667 15.7513 9.78667 15.7513 13.68H14.8313C14.6979 12 14.2846 10.5067 13.5913 9.2C12.9246 7.89333 11.9513 6.97333 10.6713 6.44V18.32C12.1913 19.28 13.4046 20.1467 14.3113 20.92C15.2446 21.6933 15.9779 22.5733 16.5113 23.56C17.0446 24.52 17.3113 25.6533 17.3113 26.96ZM8.27125 6C8.05792 6 7.73792 6.02667 7.31125 6.08V16.24C7.65792 16.48 8.20458 16.8133 8.95125 17.24L9.87125 17.8V6.2C9.33792 6.06666 8.80458 6 8.27125 6ZM3.39125 10.64C3.39125 11.7333 3.65792 12.68 4.19125 13.48C4.72458 14.2533 5.49792 14.9867 6.51125 15.68V6.28C5.55125 6.57333 4.79125 7.10666 4.23125 7.88C3.67125 8.65333 3.39125 9.57333 3.39125 10.64ZM8.55125 33.76C9.00458 33.76 9.44458 33.72 9.87125 33.64V22.64C9.49792 22.3733 8.71125 21.8667 7.51125 21.12L7.31125 21V33.68C7.84458 33.7333 8.25792 33.76 8.55125 33.76ZM10.6713 33.4C11.6046 33.0267 12.3513 32.4267 12.9113 31.6C13.4713 30.7733 13.7513 29.72 13.7513 28.44C13.7513 27.4 13.4846 26.4667 12.9513 25.64C12.4446 24.7867 11.6846 23.9733 10.6713 23.2V33.4Z" fill="#E4E4E4"/>
</svg>
