<svg width="44" height="54" viewBox="0 0 44 54" fill="none" xmlns="http://www.w3.org/2000/svg">
<path d="M6.072 37.528C6.072 38.28 6.24 38.8 6.576 39.088C6.928 39.36 7.528 39.496 8.376 39.496V40C6.648 39.936 5.544 39.904 5.064 39.904C4.616 39.904 3.576 39.928 1.944 39.976L1.368 40V39.496C2.216 39.496 2.848 39.352 3.264 39.064C3.696 38.776 3.912 38.264 3.912 37.528V31.72C3.912 30.952 3.832 30.392 3.672 30.04C3.512 29.672 3.24 29.432 2.856 29.32C2.488 29.192 1.912 29.128 1.128 29.128V28.6C2.296 28.568 3.256 28.464 4.008 28.288C4.776 28.112 5.464 27.808 6.072 27.376V37.528ZM10.4908 40.336H9.69881L16.2268 22.672H17.0188L10.4908 40.336Z" fill="#262A3F"/>
<path d="M39.72 39.64H34.4L32.52 46.64H29.04L30.92 39.64H20.96L21.2 38.8L38.64 19.84H39.68L35 37.36H40.36L39.72 39.64ZM31.52 37.36L34.8 25.08L23.56 37.36H31.52Z" fill="#85BBB1"/>
</svg>
